<?xml version="1.0" encoding="UTF-8" standalone="no"?>
<svg width="101px" height="37px" viewBox="0 0 101 37" version="1.1" xmlns="http://www.w3.org/2000/svg" xmlns:xlink="http://www.w3.org/1999/xlink" xmlns:sketch="http://www.bohemiancoding.com/sketch/ns">
    <!-- Generator: Sketch 3.0.4 (8053) - http://www.bohemiancoding.com/sketch -->
    <title>Logo</title>
    <desc>Created with Sketch.</desc>
    <defs></defs>
    <g id="Page-1" stroke="none" stroke-width="1" fill="none" fill-rule="evenodd" sketch:type="MSPage">
        <g id="Desktop-HD-2" sketch:type="MSArtboardGroup" transform="translate(-250.000000, -249.000000)" fill="#4BAD08">
            <g id="Logo" sketch:type="MSLayerGroup" transform="translate(250.000000, 250.000000)">
                <path d="M53.8089611,31.5014997 L50.1408022,30.3552 L50.1408021,14.2272002 L52.3872022,14.2272 L52.3872022,10.5408 L43.2288022,10.3104 L43.2288022,30.3552 L40.0485617,31.4910002 L35.9596811,30.3552 L35.9596811,-0.5184 L25.3152011,-0.14976 L25.3152011,3.53664 L29.0016011,4.45824 L29.0016011,30.3552 L25.3152011,31.5072 L25.3152011,35.1936 L40.0550416,35.1936 L40.0550416,35.1936 L53.8089611,35.1936 L66.92352,35.1936 L66.92352,31.5072 L64.38912,30.3552 L64.38912,18.32832 C64.38912,18.32832 66.46272,15.70176 69.31968,15.70176 C71.25504,15.70176 72.45312,17.26848 72.45312,19.38816 L72.45312,30.3552 L69.91872,31.5072 L69.91872,35.1936 L82.59072,35.1936 L82.59072,31.5072 L79.36512,30.3552 L79.36512,18.144 C79.36512,13.12128 76.83072,9.94176 72.36096,9.94176 C68.25984,9.94176 63.88224,13.48992 63.88224,13.48992 L63.55968,10.3104 L55.23072,10.5408 L55.23072,14.2272 L57.4771199,14.2272001 L57.47712,30.3552 L53.8089611,31.5014997 L53.8089611,31.5014997 Z M0,35.1936 L14.0544,35.1936 L14.0544,31.2768 L10.5984,29.8944 L10.5984,23.904 L13.04064,23.904 C21.4272,23.904 26.17344,20.12544 26.17344,12.384 C26.17344,6.3936 22.02624,2.7072 14.976,2.7072 L10.5984,2.7072 L0,2.9376 L0,6.8544 L3.456,8.2368 L3.456,29.8944 L0,31.2768 L0,35.1936 Z M10.5984,18.51264 L10.5984,8.2368 L14.2848,8.2368 C17.41824,8.2368 19.03104,10.3104 19.03104,13.3056 C19.03104,16.71552 16.86528,18.51264 13.04064,18.51264 L10.5984,18.51264 Z M98.67392,29.29536 C98.07488,29.61792 96.27776,30.3552 95.0336,30.3552 C93.09824,30.3552 92.59136,29.15712 92.59136,26.208 L92.59136,16.0704 L99.04256,16.0704 L99.04256,11.0016 L92.59136,11.0016 L92.59136,3.3984 L85.67936,4.64256 L85.67936,11.0016 L81.39392,11.60064 L81.39392,16.0704 L85.67936,16.0704 L85.67936,26.6688 C85.67936,31.968 87.2,35.6544 92.4992,35.6544 C95.4944,35.6544 98.07488,34.45632 100.3328,32.79744 L98.67392,29.29536 Z" id="Logo-3" sketch:type="MSShapeGroup"></path>
                <circle id="Oval-3" sketch:type="MSShapeGroup" cx="46.8" cy="3.6" r="3.6"></circle>
                <circle id="Oval-4" sketch:type="MSShapeGroup" cx="59.76" cy="3.6" r="3.6"></circle>
            </g>
        </g>
    </g>
</svg>